<?xml version="1.0" encoding="utf-8" standalone="no"?>
<!DOCTYPE svg PUBLIC "-//W3C//DTD SVG 1.1//EN"
  "http://www.w3.org/Graphics/SVG/1.1/DTD/svg11.dtd">
<svg xmlns:xlink="http://www.w3.org/1999/xlink" width="460.8pt" height="345.6pt" viewBox="0 0 460.8 345.6" xmlns="http://www.w3.org/2000/svg" version="1.1">
 <metadata>
  <rdf:RDF xmlns:dc="http://purl.org/dc/elements/1.1/" xmlns:cc="http://creativecommons.org/ns#" xmlns:rdf="http://www.w3.org/1999/02/22-rdf-syntax-ns#">
   <cc:Work>
    <dc:type rdf:resource="http://purl.org/dc/dcmitype/StillImage"/>
    <dc:date>2025-10-15T06:28:40.629422</dc:date>
    <dc:format>image/svg+xml</dc:format>
    <dc:creator>
     <cc:Agent>
      <dc:title>Matplotlib v3.10.7, https://matplotlib.org/</dc:title>
     </cc:Agent>
    </dc:creator>
   </cc:Work>
  </rdf:RDF>
 </metadata>
 <defs>
  <style type="text/css">*{stroke-linejoin: round; stroke-linecap: butt}</style>
 </defs>
 <g id="figure_1">
  <g id="patch_1">
   <path d="M 0 345.6 
L 460.8 345.6 
L 460.8 0 
L 0 0 
z
" style="fill: #ffffff"/>
  </g>
  <g id="axes_1">
   <g id="patch_2">
    <path d="M 57.6 307.584 
L 414.72 307.584 
L 414.72 41.472 
L 57.6 41.472 
z
" style="fill: #ffffff"/>
   </g>
   <g id="matplotlib.axis_1">
    <g id="xtick_1">
     <g id="line2d_1">
      <path d="M 73.832727 307.584 
L 73.832727 41.472 
" clip-path="url(#p3e870013ec)" style="fill: none; stroke: #b0b0b0; stroke-width: 0.8; stroke-linecap: square"/>
     </g>
     <g id="line2d_2">
      <defs>
       <path id="m1de3d40e29" d="M 0 0 
L 0 3.5 
" style="stroke: #000000; stroke-width: 0.8"/>
      </defs>
      <g>
       <use xlink:href="#m1de3d40e29" x="73.832727" y="307.584" style="stroke: #000000; stroke-width: 0.8"/>
      </g>
     </g>
     <g id="text_1">
      <!-- 0 -->
      <g transform="translate(70.651477 322.182437) scale(0.1 -0.1)">
       <defs>
        <path id="DejaVuSans-30" d="M 2034 4250 
Q 1547 4250 1301 3770 
Q 1056 3291 1056 2328 
Q 1056 1369 1301 889 
Q 1547 409 2034 409 
Q 2525 409 2770 889 
Q 3016 1369 3016 2328 
Q 3016 3291 2770 3770 
Q 2525 4250 2034 4250 
z
M 2034 4750 
Q 2819 4750 3233 4129 
Q 3647 3509 3647 2328 
Q 3647 1150 3233 529 
Q 2819 -91 2034 -91 
Q 1250 -91 836 529 
Q 422 1150 422 2328 
Q 422 3509 836 4129 
Q 1250 4750 2034 4750 
z
" transform="scale(0.015625)"/>
       </defs>
       <use xlink:href="#DejaVuSans-30"/>
      </g>
     </g>
    </g>
    <g id="xtick_2">
     <g id="line2d_3">
      <path d="M 113.521547 307.584 
L 113.521547 41.472 
" clip-path="url(#p3e870013ec)" style="fill: none; stroke: #b0b0b0; stroke-width: 0.8; stroke-linecap: square"/>
     </g>
     <g id="line2d_4">
      <g>
       <use xlink:href="#m1de3d40e29" x="113.521547" y="307.584" style="stroke: #000000; stroke-width: 0.8"/>
      </g>
     </g>
     <g id="text_2">
      <!-- 50 -->
      <g transform="translate(107.159047 322.182437) scale(0.1 -0.1)">
       <defs>
        <path id="DejaVuSans-35" d="M 691 4666 
L 3169 4666 
L 3169 4134 
L 1269 4134 
L 1269 2991 
Q 1406 3038 1543 3061 
Q 1681 3084 1819 3084 
Q 2600 3084 3056 2656 
Q 3513 2228 3513 1497 
Q 3513 744 3044 326 
Q 2575 -91 1722 -91 
Q 1428 -91 1123 -41 
Q 819 9 494 109 
L 494 744 
Q 775 591 1075 516 
Q 1375 441 1709 441 
Q 2250 441 2565 725 
Q 2881 1009 2881 1497 
Q 2881 1984 2565 2268 
Q 2250 2553 1709 2553 
Q 1456 2553 1204 2497 
Q 953 2441 691 2322 
L 691 4666 
z
" transform="scale(0.015625)"/>
       </defs>
       <use xlink:href="#DejaVuSans-35"/>
       <use xlink:href="#DejaVuSans-30" transform="translate(63.623047 0)"/>
      </g>
     </g>
    </g>
    <g id="xtick_3">
     <g id="line2d_5">
      <path d="M 153.210367 307.584 
L 153.210367 41.472 
" clip-path="url(#p3e870013ec)" style="fill: none; stroke: #b0b0b0; stroke-width: 0.8; stroke-linecap: square"/>
     </g>
     <g id="line2d_6">
      <g>
       <use xlink:href="#m1de3d40e29" x="153.210367" y="307.584" style="stroke: #000000; stroke-width: 0.8"/>
      </g>
     </g>
     <g id="text_3">
      <!-- 100 -->
      <g transform="translate(143.666617 322.182437) scale(0.1 -0.1)">
       <defs>
        <path id="DejaVuSans-31" d="M 794 531 
L 1825 531 
L 1825 4091 
L 703 3866 
L 703 4441 
L 1819 4666 
L 2450 4666 
L 2450 531 
L 3481 531 
L 3481 0 
L 794 0 
L 794 531 
z
" transform="scale(0.015625)"/>
       </defs>
       <use xlink:href="#DejaVuSans-31"/>
       <use xlink:href="#DejaVuSans-30" transform="translate(63.623047 0)"/>
       <use xlink:href="#DejaVuSans-30" transform="translate(127.246094 0)"/>
      </g>
     </g>
    </g>
    <g id="xtick_4">
     <g id="line2d_7">
      <path d="M 192.899186 307.584 
L 192.899186 41.472 
" clip-path="url(#p3e870013ec)" style="fill: none; stroke: #b0b0b0; stroke-width: 0.8; stroke-linecap: square"/>
     </g>
     <g id="line2d_8">
      <g>
       <use xlink:href="#m1de3d40e29" x="192.899186" y="307.584" style="stroke: #000000; stroke-width: 0.8"/>
      </g>
     </g>
     <g id="text_4">
      <!-- 150 -->
      <g transform="translate(183.355436 322.182437) scale(0.1 -0.1)">
       <use xlink:href="#DejaVuSans-31"/>
       <use xlink:href="#DejaVuSans-35" transform="translate(63.623047 0)"/>
       <use xlink:href="#DejaVuSans-30" transform="translate(127.246094 0)"/>
      </g>
     </g>
    </g>
    <g id="xtick_5">
     <g id="line2d_9">
      <path d="M 232.588006 307.584 
L 232.588006 41.472 
" clip-path="url(#p3e870013ec)" style="fill: none; stroke: #b0b0b0; stroke-width: 0.8; stroke-linecap: square"/>
     </g>
     <g id="line2d_10">
      <g>
       <use xlink:href="#m1de3d40e29" x="232.588006" y="307.584" style="stroke: #000000; stroke-width: 0.8"/>
      </g>
     </g>
     <g id="text_5">
      <!-- 200 -->
      <g transform="translate(223.044256 322.182437) scale(0.1 -0.1)">
       <defs>
        <path id="DejaVuSans-32" d="M 1228 531 
L 3431 531 
L 3431 0 
L 469 0 
L 469 531 
Q 828 903 1448 1529 
Q 2069 2156 2228 2338 
Q 2531 2678 2651 2914 
Q 2772 3150 2772 3378 
Q 2772 3750 2511 3984 
Q 2250 4219 1831 4219 
Q 1534 4219 1204 4116 
Q 875 4013 500 3803 
L 500 4441 
Q 881 4594 1212 4672 
Q 1544 4750 1819 4750 
Q 2544 4750 2975 4387 
Q 3406 4025 3406 3419 
Q 3406 3131 3298 2873 
Q 3191 2616 2906 2266 
Q 2828 2175 2409 1742 
Q 1991 1309 1228 531 
z
" transform="scale(0.015625)"/>
       </defs>
       <use xlink:href="#DejaVuSans-32"/>
       <use xlink:href="#DejaVuSans-30" transform="translate(63.623047 0)"/>
       <use xlink:href="#DejaVuSans-30" transform="translate(127.246094 0)"/>
      </g>
     </g>
    </g>
    <g id="xtick_6">
     <g id="line2d_11">
      <path d="M 272.276826 307.584 
L 272.276826 41.472 
" clip-path="url(#p3e870013ec)" style="fill: none; stroke: #b0b0b0; stroke-width: 0.8; stroke-linecap: square"/>
     </g>
     <g id="line2d_12">
      <g>
       <use xlink:href="#m1de3d40e29" x="272.276826" y="307.584" style="stroke: #000000; stroke-width: 0.8"/>
      </g>
     </g>
     <g id="text_6">
      <!-- 250 -->
      <g transform="translate(262.733076 322.182437) scale(0.1 -0.1)">
       <use xlink:href="#DejaVuSans-32"/>
       <use xlink:href="#DejaVuSans-35" transform="translate(63.623047 0)"/>
       <use xlink:href="#DejaVuSans-30" transform="translate(127.246094 0)"/>
      </g>
     </g>
    </g>
    <g id="xtick_7">
     <g id="line2d_13">
      <path d="M 311.965646 307.584 
L 311.965646 41.472 
" clip-path="url(#p3e870013ec)" style="fill: none; stroke: #b0b0b0; stroke-width: 0.8; stroke-linecap: square"/>
     </g>
     <g id="line2d_14">
      <g>
       <use xlink:href="#m1de3d40e29" x="311.965646" y="307.584" style="stroke: #000000; stroke-width: 0.8"/>
      </g>
     </g>
     <g id="text_7">
      <!-- 300 -->
      <g transform="translate(302.421896 322.182437) scale(0.1 -0.1)">
       <defs>
        <path id="DejaVuSans-33" d="M 2597 2516 
Q 3050 2419 3304 2112 
Q 3559 1806 3559 1356 
Q 3559 666 3084 287 
Q 2609 -91 1734 -91 
Q 1441 -91 1130 -33 
Q 819 25 488 141 
L 488 750 
Q 750 597 1062 519 
Q 1375 441 1716 441 
Q 2309 441 2620 675 
Q 2931 909 2931 1356 
Q 2931 1769 2642 2001 
Q 2353 2234 1838 2234 
L 1294 2234 
L 1294 2753 
L 1863 2753 
Q 2328 2753 2575 2939 
Q 2822 3125 2822 3475 
Q 2822 3834 2567 4026 
Q 2313 4219 1838 4219 
Q 1578 4219 1281 4162 
Q 984 4106 628 3988 
L 628 4550 
Q 988 4650 1302 4700 
Q 1616 4750 1894 4750 
Q 2613 4750 3031 4423 
Q 3450 4097 3450 3541 
Q 3450 3153 3228 2886 
Q 3006 2619 2597 2516 
z
" transform="scale(0.015625)"/>
       </defs>
       <use xlink:href="#DejaVuSans-33"/>
       <use xlink:href="#DejaVuSans-30" transform="translate(63.623047 0)"/>
       <use xlink:href="#DejaVuSans-30" transform="translate(127.246094 0)"/>
      </g>
     </g>
    </g>
    <g id="xtick_8">
     <g id="line2d_15">
      <path d="M 351.654465 307.584 
L 351.654465 41.472 
" clip-path="url(#p3e870013ec)" style="fill: none; stroke: #b0b0b0; stroke-width: 0.8; stroke-linecap: square"/>
     </g>
     <g id="line2d_16">
      <g>
       <use xlink:href="#m1de3d40e29" x="351.654465" y="307.584" style="stroke: #000000; stroke-width: 0.8"/>
      </g>
     </g>
     <g id="text_8">
      <!-- 350 -->
      <g transform="translate(342.110715 322.182437) scale(0.1 -0.1)">
       <use xlink:href="#DejaVuSans-33"/>
       <use xlink:href="#DejaVuSans-35" transform="translate(63.623047 0)"/>
       <use xlink:href="#DejaVuSans-30" transform="translate(127.246094 0)"/>
      </g>
     </g>
    </g>
    <g id="xtick_9">
     <g id="line2d_17">
      <path d="M 391.343285 307.584 
L 391.343285 41.472 
" clip-path="url(#p3e870013ec)" style="fill: none; stroke: #b0b0b0; stroke-width: 0.8; stroke-linecap: square"/>
     </g>
     <g id="line2d_18">
      <g>
       <use xlink:href="#m1de3d40e29" x="391.343285" y="307.584" style="stroke: #000000; stroke-width: 0.8"/>
      </g>
     </g>
     <g id="text_9">
      <!-- 400 -->
      <g transform="translate(381.799535 322.182437) scale(0.1 -0.1)">
       <defs>
        <path id="DejaVuSans-34" d="M 2419 4116 
L 825 1625 
L 2419 1625 
L 2419 4116 
z
M 2253 4666 
L 3047 4666 
L 3047 1625 
L 3713 1625 
L 3713 1100 
L 3047 1100 
L 3047 0 
L 2419 0 
L 2419 1100 
L 313 1100 
L 313 1709 
L 2253 4666 
z
" transform="scale(0.015625)"/>
       </defs>
       <use xlink:href="#DejaVuSans-34"/>
       <use xlink:href="#DejaVuSans-30" transform="translate(63.623047 0)"/>
       <use xlink:href="#DejaVuSans-30" transform="translate(127.246094 0)"/>
      </g>
     </g>
    </g>
    <g id="text_10">
     <!-- Batch -->
     <g transform="translate(221.787344 335.860562) scale(0.1 -0.1)">
      <defs>
       <path id="DejaVuSans-42" d="M 1259 2228 
L 1259 519 
L 2272 519 
Q 2781 519 3026 730 
Q 3272 941 3272 1375 
Q 3272 1813 3026 2020 
Q 2781 2228 2272 2228 
L 1259 2228 
z
M 1259 4147 
L 1259 2741 
L 2194 2741 
Q 2656 2741 2882 2914 
Q 3109 3088 3109 3444 
Q 3109 3797 2882 3972 
Q 2656 4147 2194 4147 
L 1259 4147 
z
M 628 4666 
L 2241 4666 
Q 2963 4666 3353 4366 
Q 3744 4066 3744 3513 
Q 3744 3084 3544 2831 
Q 3344 2578 2956 2516 
Q 3422 2416 3680 2098 
Q 3938 1781 3938 1306 
Q 3938 681 3513 340 
Q 3088 0 2303 0 
L 628 0 
L 628 4666 
z
" transform="scale(0.015625)"/>
       <path id="DejaVuSans-61" d="M 2194 1759 
Q 1497 1759 1228 1600 
Q 959 1441 959 1056 
Q 959 750 1161 570 
Q 1363 391 1709 391 
Q 2188 391 2477 730 
Q 2766 1069 2766 1631 
L 2766 1759 
L 2194 1759 
z
M 3341 1997 
L 3341 0 
L 2766 0 
L 2766 531 
Q 2569 213 2275 61 
Q 1981 -91 1556 -91 
Q 1019 -91 701 211 
Q 384 513 384 1019 
Q 384 1609 779 1909 
Q 1175 2209 1959 2209 
L 2766 2209 
L 2766 2266 
Q 2766 2663 2505 2880 
Q 2244 3097 1772 3097 
Q 1472 3097 1187 3025 
Q 903 2953 641 2809 
L 641 3341 
Q 956 3463 1253 3523 
Q 1550 3584 1831 3584 
Q 2591 3584 2966 3190 
Q 3341 2797 3341 1997 
z
" transform="scale(0.015625)"/>
       <path id="DejaVuSans-74" d="M 1172 4494 
L 1172 3500 
L 2356 3500 
L 2356 3053 
L 1172 3053 
L 1172 1153 
Q 1172 725 1289 603 
Q 1406 481 1766 481 
L 2356 481 
L 2356 0 
L 1766 0 
Q 1100 0 847 248 
Q 594 497 594 1153 
L 594 3053 
L 172 3053 
L 172 3500 
L 594 3500 
L 594 4494 
L 1172 4494 
z
" transform="scale(0.015625)"/>
       <path id="DejaVuSans-63" d="M 3122 3366 
L 3122 2828 
Q 2878 2963 2633 3030 
Q 2388 3097 2138 3097 
Q 1578 3097 1268 2742 
Q 959 2388 959 1747 
Q 959 1106 1268 751 
Q 1578 397 2138 397 
Q 2388 397 2633 464 
Q 2878 531 3122 666 
L 3122 134 
Q 2881 22 2623 -34 
Q 2366 -91 2075 -91 
Q 1284 -91 818 406 
Q 353 903 353 1747 
Q 353 2603 823 3093 
Q 1294 3584 2113 3584 
Q 2378 3584 2631 3529 
Q 2884 3475 3122 3366 
z
" transform="scale(0.015625)"/>
       <path id="DejaVuSans-68" d="M 3513 2113 
L 3513 0 
L 2938 0 
L 2938 2094 
Q 2938 2591 2744 2837 
Q 2550 3084 2163 3084 
Q 1697 3084 1428 2787 
Q 1159 2491 1159 1978 
L 1159 0 
L 581 0 
L 581 4863 
L 1159 4863 
L 1159 2956 
Q 1366 3272 1645 3428 
Q 1925 3584 2291 3584 
Q 2894 3584 3203 3211 
Q 3513 2838 3513 2113 
z
" transform="scale(0.015625)"/>
      </defs>
      <use xlink:href="#DejaVuSans-42"/>
      <use xlink:href="#DejaVuSans-61" transform="translate(68.603516 0)"/>
      <use xlink:href="#DejaVuSans-74" transform="translate(129.882812 0)"/>
      <use xlink:href="#DejaVuSans-63" transform="translate(169.091797 0)"/>
      <use xlink:href="#DejaVuSans-68" transform="translate(224.072266 0)"/>
     </g>
    </g>
   </g>
   <g id="matplotlib.axis_2">
    <g id="ytick_1">
     <g id="line2d_19">
      <path d="M 57.6 302.100548 
L 414.72 302.100548 
" clip-path="url(#p3e870013ec)" style="fill: none; stroke: #b0b0b0; stroke-width: 0.8; stroke-linecap: square"/>
     </g>
     <g id="line2d_20">
      <defs>
       <path id="m18ed62f773" d="M 0 0 
L -3.5 0 
" style="stroke: #000000; stroke-width: 0.8"/>
      </defs>
      <g>
       <use xlink:href="#m18ed62f773" x="57.6" y="302.100548" style="stroke: #000000; stroke-width: 0.8"/>
      </g>
     </g>
     <g id="text_11">
      <!-- 0 -->
      <g transform="translate(44.2375 305.899767) scale(0.1 -0.1)">
       <use xlink:href="#DejaVuSans-30"/>
      </g>
     </g>
    </g>
    <g id="ytick_2">
     <g id="line2d_21">
      <path d="M 57.6 269.503969 
L 414.72 269.503969 
" clip-path="url(#p3e870013ec)" style="fill: none; stroke: #b0b0b0; stroke-width: 0.8; stroke-linecap: square"/>
     </g>
     <g id="line2d_22">
      <g>
       <use xlink:href="#m18ed62f773" x="57.6" y="269.503969" style="stroke: #000000; stroke-width: 0.8"/>
      </g>
     </g>
     <g id="text_12">
      <!-- 1 -->
      <g transform="translate(44.2375 273.303188) scale(0.1 -0.1)">
       <use xlink:href="#DejaVuSans-31"/>
      </g>
     </g>
    </g>
    <g id="ytick_3">
     <g id="line2d_23">
      <path d="M 57.6 236.90739 
L 414.72 236.90739 
" clip-path="url(#p3e870013ec)" style="fill: none; stroke: #b0b0b0; stroke-width: 0.8; stroke-linecap: square"/>
     </g>
     <g id="line2d_24">
      <g>
       <use xlink:href="#m18ed62f773" x="57.6" y="236.90739" style="stroke: #000000; stroke-width: 0.8"/>
      </g>
     </g>
     <g id="text_13">
      <!-- 2 -->
      <g transform="translate(44.2375 240.706609) scale(0.1 -0.1)">
       <use xlink:href="#DejaVuSans-32"/>
      </g>
     </g>
    </g>
    <g id="ytick_4">
     <g id="line2d_25">
      <path d="M 57.6 204.310811 
L 414.72 204.310811 
" clip-path="url(#p3e870013ec)" style="fill: none; stroke: #b0b0b0; stroke-width: 0.8; stroke-linecap: square"/>
     </g>
     <g id="line2d_26">
      <g>
       <use xlink:href="#m18ed62f773" x="57.6" y="204.310811" style="stroke: #000000; stroke-width: 0.8"/>
      </g>
     </g>
     <g id="text_14">
      <!-- 3 -->
      <g transform="translate(44.2375 208.11003) scale(0.1 -0.1)">
       <use xlink:href="#DejaVuSans-33"/>
      </g>
     </g>
    </g>
    <g id="ytick_5">
     <g id="line2d_27">
      <path d="M 57.6 171.714232 
L 414.72 171.714232 
" clip-path="url(#p3e870013ec)" style="fill: none; stroke: #b0b0b0; stroke-width: 0.8; stroke-linecap: square"/>
     </g>
     <g id="line2d_28">
      <g>
       <use xlink:href="#m18ed62f773" x="57.6" y="171.714232" style="stroke: #000000; stroke-width: 0.8"/>
      </g>
     </g>
     <g id="text_15">
      <!-- 4 -->
      <g transform="translate(44.2375 175.513451) scale(0.1 -0.1)">
       <use xlink:href="#DejaVuSans-34"/>
      </g>
     </g>
    </g>
    <g id="ytick_6">
     <g id="line2d_29">
      <path d="M 57.6 139.117653 
L 414.72 139.117653 
" clip-path="url(#p3e870013ec)" style="fill: none; stroke: #b0b0b0; stroke-width: 0.8; stroke-linecap: square"/>
     </g>
     <g id="line2d_30">
      <g>
       <use xlink:href="#m18ed62f773" x="57.6" y="139.117653" style="stroke: #000000; stroke-width: 0.8"/>
      </g>
     </g>
     <g id="text_16">
      <!-- 5 -->
      <g transform="translate(44.2375 142.916872) scale(0.1 -0.1)">
       <use xlink:href="#DejaVuSans-35"/>
      </g>
     </g>
    </g>
    <g id="ytick_7">
     <g id="line2d_31">
      <path d="M 57.6 106.521074 
L 414.72 106.521074 
" clip-path="url(#p3e870013ec)" style="fill: none; stroke: #b0b0b0; stroke-width: 0.8; stroke-linecap: square"/>
     </g>
     <g id="line2d_32">
      <g>
       <use xlink:href="#m18ed62f773" x="57.6" y="106.521074" style="stroke: #000000; stroke-width: 0.8"/>
      </g>
     </g>
     <g id="text_17">
      <!-- 6 -->
      <g transform="translate(44.2375 110.320293) scale(0.1 -0.1)">
       <defs>
        <path id="DejaVuSans-36" d="M 2113 2584 
Q 1688 2584 1439 2293 
Q 1191 2003 1191 1497 
Q 1191 994 1439 701 
Q 1688 409 2113 409 
Q 2538 409 2786 701 
Q 3034 994 3034 1497 
Q 3034 2003 2786 2293 
Q 2538 2584 2113 2584 
z
M 3366 4563 
L 3366 3988 
Q 3128 4100 2886 4159 
Q 2644 4219 2406 4219 
Q 1781 4219 1451 3797 
Q 1122 3375 1075 2522 
Q 1259 2794 1537 2939 
Q 1816 3084 2150 3084 
Q 2853 3084 3261 2657 
Q 3669 2231 3669 1497 
Q 3669 778 3244 343 
Q 2819 -91 2113 -91 
Q 1303 -91 875 529 
Q 447 1150 447 2328 
Q 447 3434 972 4092 
Q 1497 4750 2381 4750 
Q 2619 4750 2861 4703 
Q 3103 4656 3366 4563 
z
" transform="scale(0.015625)"/>
       </defs>
       <use xlink:href="#DejaVuSans-36"/>
      </g>
     </g>
    </g>
    <g id="ytick_8">
     <g id="line2d_33">
      <path d="M 57.6 73.924495 
L 414.72 73.924495 
" clip-path="url(#p3e870013ec)" style="fill: none; stroke: #b0b0b0; stroke-width: 0.8; stroke-linecap: square"/>
     </g>
     <g id="line2d_34">
      <g>
       <use xlink:href="#m18ed62f773" x="57.6" y="73.924495" style="stroke: #000000; stroke-width: 0.8"/>
      </g>
     </g>
     <g id="text_18">
      <!-- 7 -->
      <g transform="translate(44.2375 77.723714) scale(0.1 -0.1)">
       <defs>
        <path id="DejaVuSans-37" d="M 525 4666 
L 3525 4666 
L 3525 4397 
L 1831 0 
L 1172 0 
L 2766 4134 
L 525 4134 
L 525 4666 
z
" transform="scale(0.015625)"/>
       </defs>
       <use xlink:href="#DejaVuSans-37"/>
      </g>
     </g>
    </g>
    <g id="text_19">
     <!-- Loss -->
     <g transform="translate(38.157812 185.495187) rotate(-90) scale(0.1 -0.1)">
      <defs>
       <path id="DejaVuSans-4c" d="M 628 4666 
L 1259 4666 
L 1259 531 
L 3531 531 
L 3531 0 
L 628 0 
L 628 4666 
z
" transform="scale(0.015625)"/>
       <path id="DejaVuSans-6f" d="M 1959 3097 
Q 1497 3097 1228 2736 
Q 959 2375 959 1747 
Q 959 1119 1226 758 
Q 1494 397 1959 397 
Q 2419 397 2687 759 
Q 2956 1122 2956 1747 
Q 2956 2369 2687 2733 
Q 2419 3097 1959 3097 
z
M 1959 3584 
Q 2709 3584 3137 3096 
Q 3566 2609 3566 1747 
Q 3566 888 3137 398 
Q 2709 -91 1959 -91 
Q 1206 -91 779 398 
Q 353 888 353 1747 
Q 353 2609 779 3096 
Q 1206 3584 1959 3584 
z
" transform="scale(0.015625)"/>
       <path id="DejaVuSans-73" d="M 2834 3397 
L 2834 2853 
Q 2591 2978 2328 3040 
Q 2066 3103 1784 3103 
Q 1356 3103 1142 2972 
Q 928 2841 928 2578 
Q 928 2378 1081 2264 
Q 1234 2150 1697 2047 
L 1894 2003 
Q 2506 1872 2764 1633 
Q 3022 1394 3022 966 
Q 3022 478 2636 193 
Q 2250 -91 1575 -91 
Q 1294 -91 989 -36 
Q 684 19 347 128 
L 347 722 
Q 666 556 975 473 
Q 1284 391 1588 391 
Q 1994 391 2212 530 
Q 2431 669 2431 922 
Q 2431 1156 2273 1281 
Q 2116 1406 1581 1522 
L 1381 1569 
Q 847 1681 609 1914 
Q 372 2147 372 2553 
Q 372 3047 722 3315 
Q 1072 3584 1716 3584 
Q 2034 3584 2315 3537 
Q 2597 3491 2834 3397 
z
" transform="scale(0.015625)"/>
      </defs>
      <use xlink:href="#DejaVuSans-4c"/>
      <use xlink:href="#DejaVuSans-6f" transform="translate(53.962891 0)"/>
      <use xlink:href="#DejaVuSans-73" transform="translate(115.144531 0)"/>
      <use xlink:href="#DejaVuSans-73" transform="translate(167.244141 0)"/>
     </g>
    </g>
   </g>
   <g id="line2d_35">
    <path d="M 73.832727 53.568 
L 80.976715 54.189466 
L 88.120702 54.979095 
L 92.089584 55.563708 
L 95.26469 56.121556 
L 96.058466 56.310639 
L 96.852243 56.363533 
L 98.439796 56.774279 
L 100.027348 57.158757 
L 103.202454 58.108373 
L 103.99623 58.271453 
L 105.583783 58.846118 
L 107.171336 59.285293 
L 107.965112 59.761336 
L 113.521547 62.038657 
L 115.1091 62.942202 
L 115.902876 63.559721 
L 116.696653 63.885196 
L 119.077982 65.288722 
L 119.871758 65.976791 
L 120.665535 66.471797 
L 121.459311 67.286295 
L 122.253087 67.706522 
L 123.046864 68.557485 
L 123.84064 69.127114 
L 124.634417 69.514033 
L 125.428193 70.574378 
L 126.221969 70.692321 
L 127.015746 71.874308 
L 127.809522 72.759994 
L 128.603299 73.327183 
L 129.397075 74.419112 
L 130.190851 74.643495 
L 134.159733 79.437487 
L 135.747286 82.358377 
L 136.541062 83.628043 
L 137.334839 83.584242 
L 138.128615 85.529342 
L 138.922392 86.931033 
L 139.716168 88.028387 
L 140.509944 89.343424 
L 141.303721 89.915727 
L 142.097497 91.275296 
L 143.68505 95.495276 
L 144.478826 95.193535 
L 145.272603 97.808672 
L 146.066379 99.455574 
L 146.860156 99.50239 
L 147.653932 102.828228 
L 148.447708 103.443229 
L 149.241485 107.178227 
L 150.035261 107.321645 
L 150.829038 108.660075 
L 151.622814 111.721942 
L 152.41659 112.804142 
L 153.210367 114.738578 
L 154.79792 120.690092 
L 155.591696 119.389992 
L 157.973025 128.246557 
L 158.766802 127.695595 
L 159.560578 132.687655 
L 160.354354 131.397253 
L 161.941907 140.171253 
L 162.735683 140.409376 
L 163.52946 141.459028 
L 164.323236 144.245514 
L 165.117013 145.368546 
L 165.910789 147.377512 
L 166.704565 151.044152 
L 167.498342 153.988745 
L 168.292118 152.565604 
L 169.085895 155.5346 
L 169.879671 162.10413 
L 170.673447 159.854725 
L 171.467224 167.460803 
L 172.261 166.478112 
L 173.054777 170.29521 
L 173.848553 172.835958 
L 174.642329 173.09581 
L 175.436106 176.348261 
L 176.229882 178.850283 
L 177.023659 180.093192 
L 178.611211 186.339966 
L 179.404988 187.348109 
L 180.198764 192.751576 
L 180.992541 194.067111 
L 181.786317 195.091023 
L 182.580093 194.692867 
L 183.37387 199.209816 
L 184.167646 201.761188 
L 184.961423 202.062269 
L 185.755199 205.629004 
L 186.548975 205.33519 
L 187.342752 209.544336 
L 188.930305 214.486206 
L 189.724081 216.10841 
L 190.517857 220.577082 
L 191.311634 219.731925 
L 192.10541 221.018961 
L 192.899186 222.608617 
L 193.692963 223.130249 
L 194.486739 229.416603 
L 195.280516 229.654345 
L 196.074292 231.970198 
L 196.868068 231.629661 
L 197.661845 227.785626 
L 198.455621 233.42392 
L 199.249398 229.818024 
L 200.043174 232.566088 
L 200.83695 233.111928 
L 201.630727 237.683652 
L 202.424503 236.983331 
L 203.21828 238.956046 
L 204.012056 237.651819 
L 204.805832 245.512104 
L 205.599609 242.898178 
L 206.393385 244.301976 
L 207.980938 245.910179 
L 208.774714 243.813707 
L 209.568491 245.837895 
L 210.362267 246.102262 
L 211.156044 251.483685 
L 211.94982 250.969611 
L 212.743596 252.890497 
L 213.537373 252.733996 
L 214.331149 253.595578 
L 215.124926 255.680365 
L 215.918702 254.533482 
L 216.712478 256.815178 
L 217.506255 256.683706 
L 218.300031 259.001909 
L 219.093808 257.374514 
L 219.887584 258.179873 
L 220.68136 261.920129 
L 221.475137 259.805387 
L 222.268913 263.7419 
L 223.062689 261.745722 
L 223.856466 262.276769 
L 224.650242 263.255408 
L 225.444019 262.551442 
L 226.237795 263.136362 
L 227.031571 266.041436 
L 227.825348 262.450523 
L 228.619124 263.957893 
L 229.412901 264.80985 
L 230.206677 264.976054 
L 231.000453 266.098849 
L 231.79423 268.326497 
L 232.588006 269.351696 
L 233.381783 266.972198 
L 234.175559 266.419868 
L 234.969335 265.34736 
L 236.556888 269.754569 
L 237.350665 268.934336 
L 238.144441 269.954106 
L 238.938217 272.059198 
L 239.731994 267.127809 
L 240.52577 271.983127 
L 241.319547 270.954604 
L 242.113323 268.607007 
L 242.907099 271.319593 
L 243.700876 271.805209 
L 244.494652 273.977875 
L 245.288429 273.610532 
L 246.082205 273.110585 
L 246.875981 274.699166 
L 247.669758 274.202227 
L 248.463534 276.017532 
L 249.257311 276.235528 
L 250.051087 278.926847 
L 250.844863 277.313358 
L 251.63864 277.260831 
L 252.432416 277.074872 
L 253.226192 277.629036 
L 254.019969 275.976453 
L 254.813745 275.426845 
L 255.607522 278.783595 
L 257.195074 278.121805 
L 257.988851 277.516118 
L 258.782627 279.05322 
L 259.576404 277.523003 
L 260.37018 279.016192 
L 261.163956 278.319024 
L 261.957733 279.610341 
L 262.751509 277.273126 
L 263.545286 280.966012 
L 264.339062 281.973598 
L 265.132838 281.238361 
L 265.926615 280.071342 
L 266.720391 281.301004 
L 267.514168 279.444834 
L 268.307944 279.601118 
L 269.10172 280.471262 
L 269.895497 281.763304 
L 270.689273 281.785855 
L 271.48305 281.692819 
L 272.276826 282.448194 
L 273.070602 281.679526 
L 273.864379 281.217011 
L 274.658155 282.646767 
L 275.451932 285.347991 
L 276.245708 283.878396 
L 277.039484 280.614499 
L 277.833261 284.77236 
L 278.627037 281.194119 
L 279.420814 283.994581 
L 280.21459 285.366435 
L 281.008366 284.37094 
L 281.802143 286.438856 
L 282.595919 285.441037 
L 283.389695 283.276656 
L 284.183472 285.29883 
L 284.977248 284.041728 
L 285.771025 284.211758 
L 286.564801 286.352956 
L 287.358577 284.082784 
L 288.152354 284.601536 
L 288.94613 287.287381 
L 289.739907 286.992389 
L 291.327459 285.3394 
L 292.915012 286.324474 
L 293.708789 285.449347 
L 294.502565 287.258168 
L 295.296341 288.251708 
L 296.090118 286.489908 
L 296.883894 286.489226 
L 297.677671 289.516232 
L 298.471447 288.677997 
L 299.265223 287.533584 
L 300.059 287.0182 
L 301.646553 288.539187 
L 302.440329 287.237659 
L 303.234105 287.548043 
L 304.027882 289.268596 
L 304.821658 287.568477 
L 305.615435 287.259452 
L 306.409211 287.776195 
L 307.202987 289.329866 
L 307.996764 289.507014 
L 308.79054 288.523457 
L 309.584317 287.839304 
L 311.171869 289.009973 
L 311.965646 287.915957 
L 312.759422 288.108567 
L 313.553198 288.463973 
L 314.346975 290.744216 
L 315.140751 290.124599 
L 315.934528 288.561011 
L 316.728304 289.470724 
L 317.52208 289.7094 
L 318.315857 290.961629 
L 319.109633 290.166564 
L 319.90341 290.302239 
L 321.490962 288.826242 
L 322.284739 288.65011 
L 323.078515 289.791661 
L 323.872292 290.554727 
L 324.666068 290.467705 
L 325.459844 290.520747 
L 326.253621 290.027489 
L 327.841174 291.877331 
L 328.63495 289.888531 
L 329.428726 290.072638 
L 330.222503 291.127902 
L 331.016279 291.807523 
L 331.810056 290.912665 
L 332.603832 292.298258 
L 333.397608 290.270351 
L 334.191385 291.199671 
L 334.985161 290.575346 
L 335.778938 290.949655 
L 336.572714 290.103374 
L 337.36649 291.167907 
L 338.160267 291.097267 
L 338.954043 293.465836 
L 339.74782 290.527851 
L 340.541596 291.852457 
L 341.335372 291.192239 
L 342.129149 292.266304 
L 342.922925 291.645688 
L 343.716701 290.420798 
L 344.510478 291.858905 
L 345.304254 291.689195 
L 346.098031 292.291601 
L 346.891807 291.376782 
L 347.685583 292.713589 
L 348.47936 290.972506 
L 349.273136 292.820934 
L 350.860689 291.418133 
L 351.654465 292.444755 
L 352.448242 292.382142 
L 353.242018 290.748251 
L 354.035795 291.605338 
L 354.829571 292.024937 
L 355.623347 292.965345 
L 356.417124 292.738701 
L 357.2109 293.104497 
L 358.004677 292.939979 
L 358.798453 293.479967 
L 359.592229 293.045605 
L 360.386006 291.379716 
L 361.179782 290.611193 
L 361.973559 290.396409 
L 362.767335 292.605839 
L 363.561111 292.468757 
L 364.354888 293.29045 
L 365.148664 293.086144 
L 365.942441 292.177714 
L 366.736217 293.846813 
L 367.529993 294.068888 
L 368.32377 292.856702 
L 369.117546 293.679402 
L 369.911323 293.914264 
L 370.705099 293.278912 
L 372.292652 292.809741 
L 373.086428 293.495626 
L 373.880204 293.063764 
L 374.673981 293.029983 
L 375.467757 292.859551 
L 376.261534 293.126384 
L 377.05531 293.844148 
L 377.849086 295.245457 
L 378.642863 294.119434 
L 379.436639 293.811739 
L 380.230416 294.109661 
L 381.024192 293.603131 
L 381.817968 292.690175 
L 382.611745 292.817968 
L 383.405521 295.488 
L 384.199298 293.86337 
L 384.993074 294.186285 
L 385.78685 293.930705 
L 386.580627 295.289279 
L 387.374403 292.416242 
L 388.16818 293.636047 
L 388.961956 293.607619 
L 389.755732 293.44818 
L 390.549509 295.017917 
L 391.343285 294.265996 
L 392.137062 294.209455 
L 392.930838 294.640657 
L 393.724614 294.355789 
L 394.518391 294.755677 
L 395.312167 294.008635 
L 396.105944 294.581734 
L 396.89972 294.948578 
L 397.693496 293.389496 
L 398.487273 294.982204 
L 398.487273 294.982204 
" clip-path="url(#p3e870013ec)" style="fill: none; stroke: #1f77b4; stroke-width: 1.5; stroke-linecap: square"/>
   </g>
   <g id="patch_3">
    <path d="M 57.6 307.584 
L 57.6 41.472 
" style="fill: none; stroke: #000000; stroke-width: 0.8; stroke-linejoin: miter; stroke-linecap: square"/>
   </g>
   <g id="patch_4">
    <path d="M 414.72 307.584 
L 414.72 41.472 
" style="fill: none; stroke: #000000; stroke-width: 0.8; stroke-linejoin: miter; stroke-linecap: square"/>
   </g>
   <g id="patch_5">
    <path d="M 57.6 307.584 
L 414.72 307.584 
" style="fill: none; stroke: #000000; stroke-width: 0.8; stroke-linejoin: miter; stroke-linecap: square"/>
   </g>
   <g id="patch_6">
    <path d="M 57.6 41.472 
L 414.72 41.472 
" style="fill: none; stroke: #000000; stroke-width: 0.8; stroke-linejoin: miter; stroke-linecap: square"/>
   </g>
   <g id="text_20">
    <!-- Loss Curve -->
    <g transform="translate(203.390625 35.472) scale(0.12 -0.12)">
     <defs>
      <path id="DejaVuSans-20" transform="scale(0.015625)"/>
      <path id="DejaVuSans-43" d="M 4122 4306 
L 4122 3641 
Q 3803 3938 3442 4084 
Q 3081 4231 2675 4231 
Q 1875 4231 1450 3742 
Q 1025 3253 1025 2328 
Q 1025 1406 1450 917 
Q 1875 428 2675 428 
Q 3081 428 3442 575 
Q 3803 722 4122 1019 
L 4122 359 
Q 3791 134 3420 21 
Q 3050 -91 2638 -91 
Q 1578 -91 968 557 
Q 359 1206 359 2328 
Q 359 3453 968 4101 
Q 1578 4750 2638 4750 
Q 3056 4750 3426 4639 
Q 3797 4528 4122 4306 
z
" transform="scale(0.015625)"/>
      <path id="DejaVuSans-75" d="M 544 1381 
L 544 3500 
L 1119 3500 
L 1119 1403 
Q 1119 906 1312 657 
Q 1506 409 1894 409 
Q 2359 409 2629 706 
Q 2900 1003 2900 1516 
L 2900 3500 
L 3475 3500 
L 3475 0 
L 2900 0 
L 2900 538 
Q 2691 219 2414 64 
Q 2138 -91 1772 -91 
Q 1169 -91 856 284 
Q 544 659 544 1381 
z
M 1991 3584 
L 1991 3584 
z
" transform="scale(0.015625)"/>
      <path id="DejaVuSans-72" d="M 2631 2963 
Q 2534 3019 2420 3045 
Q 2306 3072 2169 3072 
Q 1681 3072 1420 2755 
Q 1159 2438 1159 1844 
L 1159 0 
L 581 0 
L 581 3500 
L 1159 3500 
L 1159 2956 
Q 1341 3275 1631 3429 
Q 1922 3584 2338 3584 
Q 2397 3584 2469 3576 
Q 2541 3569 2628 3553 
L 2631 2963 
z
" transform="scale(0.015625)"/>
      <path id="DejaVuSans-76" d="M 191 3500 
L 800 3500 
L 1894 563 
L 2988 3500 
L 3597 3500 
L 2284 0 
L 1503 0 
L 191 3500 
z
" transform="scale(0.015625)"/>
      <path id="DejaVuSans-65" d="M 3597 1894 
L 3597 1613 
L 953 1613 
Q 991 1019 1311 708 
Q 1631 397 2203 397 
Q 2534 397 2845 478 
Q 3156 559 3463 722 
L 3463 178 
Q 3153 47 2828 -22 
Q 2503 -91 2169 -91 
Q 1331 -91 842 396 
Q 353 884 353 1716 
Q 353 2575 817 3079 
Q 1281 3584 2069 3584 
Q 2775 3584 3186 3129 
Q 3597 2675 3597 1894 
z
M 3022 2063 
Q 3016 2534 2758 2815 
Q 2500 3097 2075 3097 
Q 1594 3097 1305 2825 
Q 1016 2553 972 2059 
L 3022 2063 
z
" transform="scale(0.015625)"/>
     </defs>
     <use xlink:href="#DejaVuSans-4c"/>
     <use xlink:href="#DejaVuSans-6f" transform="translate(53.962891 0)"/>
     <use xlink:href="#DejaVuSans-73" transform="translate(115.144531 0)"/>
     <use xlink:href="#DejaVuSans-73" transform="translate(167.244141 0)"/>
     <use xlink:href="#DejaVuSans-20" transform="translate(219.34375 0)"/>
     <use xlink:href="#DejaVuSans-43" transform="translate(251.130859 0)"/>
     <use xlink:href="#DejaVuSans-75" transform="translate(320.955078 0)"/>
     <use xlink:href="#DejaVuSans-72" transform="translate(384.333984 0)"/>
     <use xlink:href="#DejaVuSans-76" transform="translate(425.447266 0)"/>
     <use xlink:href="#DejaVuSans-65" transform="translate(484.626953 0)"/>
    </g>
   </g>
  </g>
 </g>
 <defs>
  <clipPath id="p3e870013ec">
   <rect x="57.6" y="41.472" width="357.12" height="266.112"/>
  </clipPath>
 </defs>
</svg>
